<svg xmlns="http://www.w3.org/2000/svg" xmlns:xlink="http://www.w3.org/1999/xlink" width="500" zoomAndPan="magnify" viewBox="0 0 375 112.499997" height="150" preserveAspectRatio="xMidYMid meet" version="1.0"><defs><g/><clipPath id="5ea42e4f91"><path d="M 363.859375 65.996094 L 373.960938 65.996094 L 373.960938 76.101562 L 363.859375 76.101562 Z M 363.859375 65.996094 " clip-rule="nonzero"/></clipPath></defs><g clip-path="url(#5ea42e4f91)"><path fill="#ffffff" d="M 369.011719 65.996094 C 366.167969 65.996094 363.859375 68.304688 363.859375 71.148438 C 363.859375 73.992188 366.167969 76.300781 369.011719 76.300781 C 371.855469 76.300781 374.164062 73.992188 374.164062 71.148438 C 374.164062 68.304688 371.855469 65.996094 369.011719 65.996094 Z M 369.011719 66.445312 C 371.613281 66.445312 373.71875 68.546875 373.71875 71.148438 C 373.71875 73.75 371.613281 75.855469 369.011719 75.855469 C 366.410156 75.855469 364.308594 73.75 364.308594 71.148438 C 364.308594 68.546875 366.410156 66.445312 369.011719 66.445312 Z M 367.539062 69.132812 L 367.539062 73.167969 L 368.042969 73.167969 L 368.042969 71.570312 L 369.03125 71.570312 L 369.894531 73.167969 L 370.484375 73.167969 L 369.554688 71.492188 C 370.058594 71.332031 370.363281 70.898438 370.363281 70.335938 C 370.363281 69.609375 369.855469 69.132812 369.078125 69.132812 Z M 368.039062 69.578125 L 369.011719 69.578125 C 369.53125 69.578125 369.84375 69.867188 369.84375 70.351562 C 369.84375 70.847656 369.550781 71.121094 369.03125 71.121094 L 368.039062 71.121094 Z M 368.039062 69.578125 " fill-opacity="1" fill-rule="nonzero"/></g><g fill="#ffffff" fill-opacity="1"><g transform="translate(11.000378, 75.790274)"><g><path d="M 24.40625 2.046875 C 21.28125 2.046875 18.363281 1.523438 15.65625 0.484375 C 12.945312 -0.554688 10.566406 -2.035156 8.515625 -3.953125 C 6.460938 -5.878906 4.863281 -8.179688 3.71875 -10.859375 C 2.570312 -13.535156 2 -16.488281 2 -19.71875 C 2 -23.03125 2.570312 -26.023438 3.71875 -28.703125 C 4.863281 -31.378906 6.460938 -33.664062 8.515625 -35.5625 C 10.566406 -37.46875 12.945312 -38.929688 15.65625 -39.953125 C 18.363281 -40.984375 21.28125 -41.5 24.40625 -41.5 C 27.570312 -41.5 30.570312 -40.984375 33.40625 -39.953125 C 36.25 -38.929688 38.625 -37.539062 40.53125 -35.78125 L 32.015625 -25.546875 C 31.253906 -26.585938 30.289062 -27.367188 29.125 -27.890625 C 27.957031 -28.410156 26.65625 -28.671875 25.21875 -28.671875 C 23.675781 -28.671875 22.273438 -28.3125 21.015625 -27.59375 C 19.753906 -26.875 18.75 -25.835938 18 -24.484375 C 17.25 -23.140625 16.875 -21.550781 16.875 -19.71875 C 16.875 -17.957031 17.25 -16.410156 18 -15.078125 C 18.75 -13.753906 19.757812 -12.734375 21.03125 -12.015625 C 22.3125 -11.296875 23.707031 -10.9375 25.21875 -10.9375 C 26.800781 -10.9375 28.164062 -11.269531 29.3125 -11.9375 C 30.46875 -12.601562 31.367188 -13.382812 32.015625 -14.28125 L 40.53125 -4.09375 C 38.695312 -2.257812 36.40625 -0.78125 33.65625 0.34375 C 30.90625 1.476562 27.820312 2.046875 24.40625 2.046875 Z M 24.40625 2.046875 "/></g></g><g transform="translate(51.520431, 75.790274)"><g><path d="M 19.234375 2.046875 C 16.941406 2.046875 14.75 1.675781 12.65625 0.9375 C 10.570312 0.207031 8.722656 -0.863281 7.109375 -2.28125 C 5.492188 -3.707031 4.21875 -5.453125 3.28125 -7.515625 C 2.351562 -9.578125 1.890625 -11.921875 1.890625 -14.546875 C 1.890625 -17.171875 2.351562 -19.5 3.28125 -21.53125 C 4.21875 -23.5625 5.492188 -25.273438 7.109375 -26.671875 C 8.722656 -28.078125 10.570312 -29.140625 12.65625 -29.859375 C 14.75 -30.578125 16.941406 -30.9375 19.234375 -30.9375 C 21.566406 -30.9375 23.785156 -30.578125 25.890625 -29.859375 C 27.992188 -29.140625 29.863281 -28.078125 31.5 -26.671875 C 33.132812 -25.273438 34.425781 -23.5625 35.375 -21.53125 C 36.332031 -19.5 36.8125 -17.171875 36.8125 -14.546875 C 36.8125 -11.921875 36.332031 -9.578125 35.375 -7.515625 C 34.425781 -5.453125 33.132812 -3.707031 31.5 -2.28125 C 29.863281 -0.863281 27.992188 0.207031 25.890625 0.9375 C 23.785156 1.675781 21.566406 2.046875 19.234375 2.046875 Z M 19.34375 -9.375 C 20.820312 -9.375 22.019531 -9.875 22.9375 -10.875 C 23.851562 -11.882812 24.3125 -13.109375 24.3125 -14.546875 C 24.3125 -15.910156 23.832031 -17.09375 22.875 -18.09375 C 21.925781 -19.101562 20.710938 -19.609375 19.234375 -19.609375 C 17.796875 -19.609375 16.617188 -19.101562 15.703125 -18.09375 C 14.785156 -17.09375 14.328125 -15.910156 14.328125 -14.546875 C 14.328125 -13.109375 14.800781 -11.882812 15.75 -10.875 C 16.707031 -9.875 17.90625 -9.375 19.34375 -9.375 Z M 19.34375 -9.375 "/></g></g></g><g fill="#ffffff" fill-opacity="1"><g transform="translate(90.208452, 75.790274)"><g><path d="M 16.8125 0.859375 L 3.078125 0.859375 L 3.078125 -43.109375 L 16.8125 -43.109375 Z M 16.8125 0.859375 "/></g></g><g transform="translate(110.091297, 75.790274)"><g><path d="M 16.8125 0.859375 L 3.078125 0.859375 L 3.078125 -43.109375 L 16.8125 -43.109375 Z M 16.8125 0.859375 "/></g></g><g transform="translate(129.974143, 75.790274)"><g><path d="M 12.171875 1.671875 C 10.992188 1.671875 9.773438 1.5 8.515625 1.15625 C 7.253906 0.8125 6.09375 0.253906 5.03125 -0.515625 C 3.976562 -1.285156 3.128906 -2.289062 2.484375 -3.53125 C 1.835938 -4.769531 1.515625 -6.304688 1.515625 -8.140625 C 1.515625 -10.222656 2.035156 -11.9375 3.078125 -13.28125 C 4.117188 -14.632812 5.488281 -15.6875 7.1875 -16.4375 C 8.894531 -17.1875 10.765625 -17.710938 12.796875 -18.015625 C 14.828125 -18.328125 16.832031 -18.484375 18.8125 -18.484375 L 19.34375 -18.484375 L 19.34375 -18.59375 C 19.34375 -19.53125 19.019531 -20.210938 18.375 -20.640625 C 17.726562 -21.066406 16.882812 -21.28125 15.84375 -21.28125 C 14.625 -21.28125 13.445312 -21.03125 12.3125 -20.53125 C 11.175781 -20.03125 10.195312 -19.421875 9.375 -18.703125 L 2.6875 -25.328125 C 4.519531 -27.117188 6.722656 -28.5 9.296875 -29.46875 C 11.867188 -30.445312 14.519531 -30.9375 17.25 -30.9375 C 20.15625 -30.9375 22.5625 -30.53125 24.46875 -29.71875 C 26.375 -28.914062 27.875 -27.785156 28.96875 -26.328125 C 30.0625 -24.867188 30.832031 -23.195312 31.28125 -21.3125 C 31.726562 -19.425781 31.953125 -17.40625 31.953125 -15.25 L 31.953125 0.859375 L 19.78125 0.859375 L 19.78125 -1.5625 L 19.671875 -1.5625 C 18.910156 -0.414062 17.800781 0.40625 16.34375 0.90625 C 14.894531 1.414062 13.503906 1.671875 12.171875 1.671875 Z M 15.953125 -6.40625 C 17.210938 -6.40625 18.234375 -6.8125 19.015625 -7.625 C 19.804688 -8.4375 20.203125 -9.488281 20.203125 -10.78125 L 20.203125 -11.796875 L 19.453125 -11.796875 C 17.472656 -11.796875 15.878906 -11.582031 14.671875 -11.15625 C 13.472656 -10.726562 12.875 -9.9375 12.875 -8.78125 C 12.875 -7.957031 13.222656 -7.351562 13.921875 -6.96875 C 14.628906 -6.59375 15.304688 -6.40625 15.953125 -6.40625 Z M 15.953125 -6.40625 "/></g></g><g transform="translate(164.351528, 75.790274)"><g><path d="M 24.578125 1.671875 C 22.703125 1.671875 20.894531 1.3125 19.15625 0.59375 C 17.414062 -0.125 16.113281 -1.09375 15.25 -2.3125 L 15.140625 -2.3125 L 15.140625 0.859375 L 3.078125 0.859375 L 3.078125 -43.109375 L 16.484375 -43.109375 L 16.484375 -27.328125 L 16.59375 -27.328125 C 17.5 -28.367188 18.695312 -29.164062 20.1875 -29.71875 C 21.675781 -30.28125 23.140625 -30.5625 24.578125 -30.5625 C 26.835938 -30.5625 28.835938 -30.101562 30.578125 -29.1875 C 32.328125 -28.269531 33.789062 -27.035156 34.96875 -25.484375 C 36.15625 -23.941406 37.046875 -22.226562 37.640625 -20.34375 C 38.234375 -18.457031 38.53125 -16.523438 38.53125 -14.546875 C 38.53125 -12.535156 38.234375 -10.5625 37.640625 -8.625 C 37.046875 -6.6875 36.15625 -4.941406 34.96875 -3.390625 C 33.789062 -1.847656 32.328125 -0.617188 30.578125 0.296875 C 28.835938 1.210938 26.835938 1.671875 24.578125 1.671875 Z M 21.078125 -9.375 C 22.648438 -9.375 23.875 -9.875 24.75 -10.875 C 25.632812 -11.882812 26.078125 -13.109375 26.078125 -14.546875 C 26.078125 -15.910156 25.632812 -17.09375 24.75 -18.09375 C 23.875 -19.101562 22.648438 -19.609375 21.078125 -19.609375 C 19.523438 -19.609375 18.265625 -19.101562 17.296875 -18.09375 C 16.328125 -17.09375 15.84375 -15.910156 15.84375 -14.546875 C 15.84375 -13.109375 16.328125 -11.882812 17.296875 -10.875 C 18.265625 -9.875 19.523438 -9.375 21.078125 -9.375 Z M 21.078125 -9.375 "/></g></g></g><g fill="#ffffff" fill-opacity="1"><g transform="translate(204.7638, 75.790274)"><g><path d="M 11.6875 -23.921875 L 2.15625 -23.921875 L 6.46875 -40.359375 L 17.453125 -40.359375 Z M 11.6875 -23.921875 "/></g></g></g><g fill="#ffffff" fill-opacity="1"><g transform="translate(216.259471, 74.763946)"><g><path d="M 26.65625 -8.453125 L 10.078125 -8.453125 L 7.03125 0 L 1.796875 0 L 15.53125 -37.78125 L 21.265625 -37.78125 L 34.9375 0 L 29.71875 0 Z M 25.234375 -12.484375 L 18.375 -31.671875 L 11.5 -12.484375 Z M 25.234375 -12.484375 "/></g></g></g><g fill="#ffffff" fill-opacity="1"><g transform="translate(253.007337, 74.763946)"><g><path d="M 30.6875 -29.875 L 30.6875 0 L 25.734375 0 L 25.734375 -4.421875 C 24.785156 -2.890625 23.46875 -1.695312 21.78125 -0.84375 C 20.09375 0.0078125 18.226562 0.4375 16.1875 0.4375 C 13.863281 0.4375 11.773438 -0.0390625 9.921875 -1 C 8.066406 -1.96875 6.601562 -3.414062 5.53125 -5.34375 C 4.457031 -7.269531 3.921875 -9.613281 3.921875 -12.375 L 3.921875 -29.875 L 8.828125 -29.875 L 8.828125 -13.03125 C 8.828125 -10.082031 9.570312 -7.816406 11.0625 -6.234375 C 12.550781 -4.660156 14.585938 -3.875 17.171875 -3.875 C 19.828125 -3.875 21.914062 -4.691406 23.4375 -6.328125 C 24.96875 -7.960938 25.734375 -10.34375 25.734375 -13.46875 L 25.734375 -29.875 Z M 30.6875 -29.875 "/></g></g></g><g fill="#ffffff" fill-opacity="1"><g transform="translate(287.901451, 74.763946)"><g><path d="M 2.34375 -15.046875 C 2.34375 -18.097656 2.957031 -20.773438 4.1875 -23.078125 C 5.425781 -25.390625 7.125 -27.179688 9.28125 -28.453125 C 11.445312 -29.722656 13.878906 -30.359375 16.578125 -30.359375 C 18.898438 -30.359375 21.0625 -29.820312 23.0625 -28.75 C 25.0625 -27.6875 26.585938 -26.28125 27.640625 -24.53125 L 27.640625 -40.34375 L 32.65625 -40.34375 L 32.65625 0 L 27.640625 0 L 27.640625 -5.609375 C 26.660156 -3.828125 25.207031 -2.363281 23.28125 -1.21875 C 21.351562 -0.0820312 19.097656 0.484375 16.515625 0.484375 C 13.859375 0.484375 11.445312 -0.164062 9.28125 -1.46875 C 7.125 -2.78125 5.425781 -4.613281 4.1875 -6.96875 C 2.957031 -9.332031 2.34375 -12.023438 2.34375 -15.046875 Z M 27.640625 -14.984375 C 27.640625 -17.242188 27.179688 -19.207031 26.265625 -20.875 C 25.359375 -22.550781 24.132812 -23.832031 22.59375 -24.71875 C 21.050781 -25.613281 19.351562 -26.0625 17.5 -26.0625 C 15.644531 -26.0625 13.953125 -25.625 12.421875 -24.75 C 10.898438 -23.875 9.6875 -22.597656 8.78125 -20.921875 C 7.875 -19.253906 7.421875 -17.296875 7.421875 -15.046875 C 7.421875 -12.753906 7.875 -10.765625 8.78125 -9.078125 C 9.6875 -7.390625 10.898438 -6.097656 12.421875 -5.203125 C 13.953125 -4.316406 15.644531 -3.875 17.5 -3.875 C 19.351562 -3.875 21.050781 -4.316406 22.59375 -5.203125 C 24.132812 -6.097656 25.359375 -7.390625 26.265625 -9.078125 C 27.179688 -10.765625 27.640625 -12.734375 27.640625 -14.984375 Z M 27.640625 -14.984375 "/></g></g></g><g fill="#ffffff" fill-opacity="1"><g transform="translate(324.758361, 74.763946)"><g><path d="M 6.765625 -34.71875 C 5.816406 -34.71875 5.015625 -35.046875 4.359375 -35.703125 C 3.703125 -36.359375 3.375 -37.160156 3.375 -38.109375 C 3.375 -39.054688 3.703125 -39.851562 4.359375 -40.5 C 5.015625 -41.15625 5.816406 -41.484375 6.765625 -41.484375 C 7.671875 -41.484375 8.441406 -41.15625 9.078125 -40.5 C 9.710938 -39.851562 10.03125 -39.054688 10.03125 -38.109375 C 10.03125 -37.160156 9.710938 -36.359375 9.078125 -35.703125 C 8.441406 -35.046875 7.671875 -34.71875 6.765625 -34.71875 Z M 9.15625 -29.875 L 9.15625 0 L 4.203125 0 L 4.203125 -29.875 Z M 9.15625 -29.875 "/></g></g></g><g fill="#ffffff" fill-opacity="1"><g transform="translate(338.170784, 74.763946)"><g><path d="M 10.25 -25.78125 L 10.25 -8.171875 C 10.25 -6.722656 10.554688 -5.695312 11.171875 -5.09375 C 11.796875 -4.5 12.867188 -4.203125 14.390625 -4.203125 L 18.046875 -4.203125 L 18.046875 0 L 13.578125 0 C 10.816406 0 8.742188 -0.632812 7.359375 -1.90625 C 5.972656 -3.175781 5.28125 -5.265625 5.28125 -8.171875 L 5.28125 -25.78125 L 1.421875 -25.78125 L 1.421875 -29.875 L 5.28125 -29.875 L 5.28125 -37.390625 L 10.25 -37.390625 L 10.25 -29.875 L 18.046875 -29.875 L 18.046875 -25.78125 Z M 10.25 -25.78125 "/></g></g></g></svg>